<svg width="24" height="24" viewBox="0 0 24 24" fill="none" xmlns="http://www.w3.org/2000/svg">
<path d="M16.017 2H7.947C6.37015 2.00185 4.85844 2.62914 3.74353 3.74424C2.62862 4.85933 2.00159 6.37115 2 7.948L2 16.018C2.00185 17.5948 2.62914 19.1066 3.74424 20.2215C4.85933 21.3364 6.37115 21.9634 7.948 21.965H16.018C17.5948 21.9631 19.1066 21.3359 20.2215 20.2208C21.3364 19.1057 21.9634 17.5938 21.965 16.017V7.947C21.9631 6.37015 21.3359 4.85844 20.2208 3.74353C19.1057 2.62862 17.5938 2.00159 16.017 2Z" fill="#000005"/>
<path d="M11.9823 6.82031C10.6137 6.82243 9.30184 7.3671 8.33421 8.33492C7.36658 9.30274 6.82216 10.6147 6.82031 11.9833C6.8219 13.3522 7.36634 14.6646 8.33421 15.6327C9.30209 16.6008 10.6144 17.1455 11.9833 17.1473C13.3524 17.1457 14.665 16.6012 15.6331 15.6331C16.6012 14.665 17.1457 13.3524 17.1473 11.9833C17.1452 10.6144 16.6003 9.3022 15.632 8.33451C14.6637 7.36682 13.3512 6.82264 11.9823 6.82131V6.82031ZM11.9823 15.1393C11.1456 15.1393 10.3431 14.8069 9.75139 14.2152C9.15971 13.6236 8.82731 12.8211 8.82731 11.9843C8.82731 11.1476 9.15971 10.3451 9.75139 9.75339C10.3431 9.16171 11.1456 8.82931 11.9823 8.82931C12.8191 8.82931 13.6216 9.16171 14.2132 9.75339C14.8049 10.3451 15.1373 11.1476 15.1373 11.9843C15.1373 12.8211 14.8049 13.6236 14.2132 14.2152C13.6216 14.8069 12.8191 15.1393 11.9823 15.1393V15.1393Z" fill="white"/>
<path d="M17.237 7.474C17.9202 7.474 18.474 6.92018 18.474 6.237C18.474 5.55382 17.9202 5 17.237 5C16.5538 5 16 5.55382 16 6.237C16 6.92018 16.5538 7.474 17.237 7.474Z" fill="white"/>
</svg>
