<svg width="807" height="2093" viewBox="0 0 807 2093" fill="none" xmlns="http://www.w3.org/2000/svg">
<path d="M308.299 76.4375V38.4695L309.587 39.8135H298.723V37.2375H311.155V76.4375H308.299Z" fill="black" fill-opacity="0.81"/>
<path d="M436.515 561.938V559.921L453.091 543.457C454.659 541.889 455.835 540.527 456.619 539.369C457.403 538.175 457.925 537.073 458.187 536.065C458.485 535.057 458.635 534.068 458.635 533.097C458.635 530.633 457.795 528.692 456.115 527.273C454.435 525.817 451.971 525.089 448.723 525.089C446.259 525.089 444.093 525.463 442.227 526.209C440.397 526.956 438.811 528.095 437.467 529.625L435.451 527.833C436.944 526.116 438.829 524.791 441.107 523.857C443.421 522.924 446.035 522.457 448.947 522.457C451.523 522.457 453.744 522.887 455.611 523.745C457.515 524.567 458.971 525.761 459.979 527.329C461.024 528.86 461.547 530.689 461.547 532.817C461.547 534.087 461.36 535.337 460.987 536.569C460.651 537.764 460.016 539.033 459.083 540.377C458.187 541.721 456.88 543.252 455.163 544.969L439.595 560.481L438.643 559.361H463.451V561.938H436.515Z" fill="black" fill-opacity="0.81"/>
<path d="M449.451 1961.19C446.613 1961.19 443.944 1960.7 441.443 1959.73C438.979 1958.76 437.056 1957.49 435.675 1955.92L437.131 1953.74C438.325 1955.12 440.005 1956.28 442.171 1957.21C444.336 1958.11 446.744 1958.55 449.395 1958.55C453.016 1958.55 455.741 1957.73 457.571 1956.09C459.4 1954.45 460.315 1952.32 460.315 1949.71C460.315 1947.84 459.885 1946.23 459.027 1944.89C458.168 1943.55 456.712 1942.52 454.659 1941.81C452.605 1941.06 449.805 1940.69 446.259 1940.69H438.307L440.379 1921.71H461.155V1924.28H441.555L442.955 1922.94L441.107 1939.57L439.763 1938.11H446.875C450.869 1938.11 454.043 1938.6 456.395 1939.57C458.784 1940.5 460.501 1941.83 461.547 1943.55C462.629 1945.26 463.171 1947.28 463.171 1949.59C463.171 1951.76 462.667 1953.72 461.659 1955.47C460.651 1957.23 459.12 1958.63 457.067 1959.67C455.051 1960.68 452.512 1961.19 449.451 1961.19Z" fill="black" fill-opacity="0.81"/>
<path d="M329.779 968.561C326.904 968.561 324.216 968.076 321.715 967.105C319.251 966.135 317.328 964.865 315.947 963.297L317.403 961.113C318.597 962.495 320.277 963.652 322.443 964.585C324.645 965.481 327.091 965.929 329.779 965.929C333.288 965.929 335.957 965.145 337.787 963.577C339.653 962.009 340.587 959.9 340.587 957.249C340.587 954.636 339.653 952.545 337.787 950.977C335.957 949.372 333.083 948.569 329.163 948.569H326.699V946.497L339.187 930.537L339.579 931.657H317.403V929.081H341.987V931.097L329.555 947.057L328.323 946.161H329.555C334.221 946.161 337.712 947.188 340.027 949.241C342.341 951.295 343.499 953.964 343.499 957.249C343.499 959.415 342.976 961.356 341.931 963.073C340.923 964.791 339.392 966.135 337.339 967.105C335.323 968.076 332.803 968.561 329.779 968.561Z" fill="black" fill-opacity="0.81"/>
<path d="M317.627 1481.04V1478.97L338.907 1452.71H342.099L320.875 1478.97L319.307 1478.52H351.003V1481.04H317.627ZM339.971 1491.91V1481.04L340.027 1478.52V1468.95H342.771V1491.91H339.971Z" fill="black" fill-opacity="0.81"/>
<path d="M226.219 112.273C255.118 112.273 267.82 112.273 296.719 112.273" stroke="#000005" stroke-linecap="round"/>
<path d="M466.32 1992.27C495.219 1992.27 525.311 1992.27 554.21 1992.27" stroke="#000005" stroke-linecap="round"/>
<circle cx="308.719" cy="111.938" r="7.5" fill="url(#paint0_radial_5988_1003)"/>
<circle cx="449.727" cy="592.938" r="7.5" fill="url(#paint1_radial_5988_1003)"/>
<circle cx="449.727" cy="1991.91" r="7.5" fill="url(#paint2_radial_5988_1003)"/>
<circle cx="331.719" cy="998.938" r="7.5" fill="url(#paint3_radial_5988_1003)"/>
<circle cx="333.219" cy="1522.41" r="7.5" fill="url(#paint4_radial_5988_1003)"/>
<path d="M322.798 111.54L490.09 111.541C525.436 111.541 554.09 140.195 554.09 175.541L554.09 528.746C554.09 564.093 525.436 592.746 490.09 592.746L465.719 592.746" stroke="#000005" stroke-linecap="round"/>
<path d="M348.217 999.444C389.336 999.444 441.745 999.445 490.093 999.446C525.439 999.447 554.088 1028.1 554.088 1063.45L554.089 1458.65C554.089 1494 525.425 1522.65 490.079 1522.65C444.771 1522.65 406.284 1522.65 350.717 1522.65" stroke="#000005" stroke-linecap="round"/>
<path d="M433.714 592.452L290.274 592.452C254.928 592.451 226.274 621.105 226.274 656.451L226.273 935.656C226.273 971.002 254.925 999.656 290.271 999.656C298.171 999.656 306.367 999.656 315.214 999.656" stroke="#000005" stroke-linecap="round"/>
<path d="M316.213 1522.95C306.406 1522.95 298.011 1522.95 290.267 1522.95C254.921 1522.95 226.273 1551.61 226.273 1586.95L226.273 1928.16C226.273 1963.5 254.924 1992.16 290.27 1992.16C344.235 1992.16 412.867 1992.16 434.214 1992.16" stroke="#000005" stroke-linecap="round"/>
<defs>
<radialGradient id="paint0_radial_5988_1003" cx="0" cy="0" r="1" gradientUnits="userSpaceOnUse" gradientTransform="translate(308.719 111.938) rotate(90) scale(7.5)">
<stop/>
<stop offset="1" stop-opacity="0"/>
</radialGradient>
<radialGradient id="paint1_radial_5988_1003" cx="0" cy="0" r="1" gradientUnits="userSpaceOnUse" gradientTransform="translate(449.727 592.938) rotate(90) scale(7.5)">
<stop/>
<stop offset="1" stop-opacity="0"/>
</radialGradient>
<radialGradient id="paint2_radial_5988_1003" cx="0" cy="0" r="1" gradientUnits="userSpaceOnUse" gradientTransform="translate(449.727 1991.91) rotate(90) scale(7.5)">
<stop/>
<stop offset="1" stop-opacity="0"/>
</radialGradient>
<radialGradient id="paint3_radial_5988_1003" cx="0" cy="0" r="1" gradientUnits="userSpaceOnUse" gradientTransform="translate(331.719 998.938) rotate(90) scale(7.5)">
<stop/>
<stop offset="1" stop-opacity="0"/>
</radialGradient>
<radialGradient id="paint4_radial_5988_1003" cx="0" cy="0" r="1" gradientUnits="userSpaceOnUse" gradientTransform="translate(333.219 1522.41) rotate(90) scale(7.5)">
<stop/>
<stop offset="1" stop-opacity="0"/>
</radialGradient>
</defs>
</svg>
