<svg width="24" height="24" viewBox="0 0 24 24" fill="none" xmlns="http://www.w3.org/2000/svg">
<g clip-path="url(#clip0_1_679)">
<path d="M5.48171 1.99195C5.39316 1.87805 5.28138 1.78428 5.15381 1.71689C5.02624 1.6495 4.88579 1.61003 4.74178 1.60109C4.59778 1.59215 4.45353 1.61395 4.3186 1.66505C4.18367 1.71615 4.06116 1.79537 3.95921 1.89745L2.40821 3.44995C1.68371 4.17595 1.41671 5.20345 1.73321 6.10495C3.0483 9.83562 5.18494 13.2231 7.98521 16.017C10.7791 18.8172 14.1665 20.9539 17.8972 22.269C18.7987 22.5855 19.8262 22.3185 20.5522 21.594L22.1032 20.043C22.2053 19.941 22.2845 19.8185 22.3356 19.6836C22.3867 19.5486 22.4085 19.4044 22.3996 19.2604C22.3906 19.1164 22.3512 18.9759 22.2838 18.8484C22.2164 18.7208 22.1226 18.609 22.0087 18.5205L18.5482 15.8295C18.4264 15.7353 18.2849 15.6699 18.1342 15.6382C17.9835 15.6065 17.8276 15.6093 17.6782 15.6465L14.3932 16.467C13.9547 16.5758 13.4955 16.5696 13.0601 16.449C12.6246 16.3284 12.2277 16.0974 11.9077 15.7785L8.22371 12.093C7.90448 11.7731 7.67323 11.3762 7.55235 10.9408C7.43147 10.5054 7.42505 10.0461 7.53371 9.60745L8.35571 6.32245C8.39285 6.17303 8.39567 6.01714 8.36398 5.86647C8.33229 5.7158 8.26689 5.57425 8.17271 5.45245L5.48171 1.99195ZM2.82671 0.766454C3.0892 0.503878 3.40455 0.30015 3.75182 0.168796C4.09908 0.0374423 4.47032 -0.0185307 4.84088 0.00459377C5.21144 0.0277182 5.57284 0.129411 5.90108 0.302919C6.22932 0.476428 6.5169 0.717781 6.74471 1.01095L9.43571 4.46995C9.92921 5.10445 10.1032 5.93095 9.90821 6.71095L9.08771 9.99595C9.04558 10.1661 9.04802 10.3443 9.09479 10.5132C9.14156 10.6821 9.23107 10.8362 9.35471 10.9605L13.0402 14.646C13.1646 14.7698 13.3189 14.8595 13.4882 14.9063C13.6574 14.9531 13.8358 14.9554 14.0062 14.913L17.2897 14.0925C17.6747 13.9968 18.0763 13.9896 18.4645 14.0714C18.8526 14.1533 19.2171 14.322 19.5307 14.565L22.9897 17.256C24.2332 18.2235 24.3472 20.061 23.2342 21.1725L21.6832 22.7235C20.5732 23.8335 18.9142 24.321 17.3677 23.7765C13.4087 22.3853 9.81452 20.1191 6.85271 17.1465C3.88027 14.1851 1.61403 10.5914 0.222706 6.63295C-0.320294 5.08795 0.167206 3.42745 1.27721 2.31745L2.82671 0.766454Z" fill="#0F172A"/>
</g>
<defs>
<clipPath id="clip0_1_679">
<rect width="24" height="24" fill="white"/>
</clipPath>
</defs>
</svg>
