<svg width="26" height="26" viewBox="0 0 26 26" fill="none" xmlns="http://www.w3.org/2000/svg">
<path d="M0.699219 24.6806L2.89922 19.614C1.2161 17.2247 0.462775 14.3033 0.780612 11.3981C1.09845 8.49286 2.4656 5.80348 4.6255 3.83465C6.78539 1.86583 9.58955 0.752908 12.5117 0.704755C15.4339 0.656603 18.2732 1.67653 20.4968 3.57312C22.7204 5.46971 24.1754 8.11259 24.5888 11.0058C25.0022 13.899 24.3455 16.8436 22.742 19.287C21.1385 21.7304 18.6985 23.5046 15.8797 24.2768C13.061 25.0489 10.0574 24.7658 7.43255 23.4806L0.699219 24.6806" stroke="#0F172A" stroke-width="1.4" stroke-linecap="round" stroke-linejoin="round"/>
<path d="M8.375 10.3672C8.375 10.544 8.44524 10.7136 8.57026 10.8386C8.69529 10.9636 8.86486 11.0339 9.04167 11.0339C9.21848 11.0339 9.38805 10.9636 9.51307 10.8386C9.6381 10.7136 9.70833 10.544 9.70833 10.3672V9.03385C9.70833 8.85704 9.6381 8.68747 9.51307 8.56245C9.38805 8.43742 9.21848 8.36719 9.04167 8.36719C8.86486 8.36719 8.69529 8.43742 8.57026 8.56245C8.44524 8.68747 8.375 8.85704 8.375 9.03385V10.3672ZM8.375 10.3672C8.375 12.1353 9.07738 13.831 10.3276 15.0812C11.5779 16.3315 13.2736 17.0339 15.0417 17.0339H16.375C16.5518 17.0339 16.7214 16.9636 16.8464 16.8386C16.9714 16.7136 17.0417 16.544 17.0417 16.3672C17.0417 16.1904 16.9714 16.0208 16.8464 15.8958C16.7214 15.7708 16.5518 15.7005 16.375 15.7005H15.0417C14.8649 15.7005 14.6953 15.7708 14.5703 15.8958C14.4452 16.0208 14.375 16.1904 14.375 16.3672C14.375 16.544 14.4452 16.7136 14.5703 16.8386C14.6953 16.9636 14.8649 17.0339 15.0417 17.0339" stroke="#0F172A" stroke-width="1.6" stroke-linecap="round" stroke-linejoin="round"/>
</svg>
