<svg width="30" height="24" viewBox="0 0 30 24" fill="none" xmlns="http://www.w3.org/2000/svg">
<path d="M23.1845 2.00143H6.8155C3.6026 2.00143 1 4.62887 1 7.87056V16.1294C1 19.3711 3.604 22 6.8155 22H23.1845C26.3974 22 29 19.3711 29 16.1294V7.87056C29 4.62887 26.396 2 23.1845 2V2.00143ZM19.2518 12.4009L11.5956 16.0879C11.5489 16.1109 11.4973 16.1214 11.4455 16.1185C11.3938 16.1156 11.3436 16.0994 11.2996 16.0714C11.2556 16.0434 11.2193 16.0045 11.194 15.9583C11.1688 15.9121 11.1553 15.8602 11.155 15.8073V8.20561C11.156 8.15245 11.1701 8.1004 11.196 8.0543C11.222 8.0082 11.259 7.96956 11.3035 7.94198C11.348 7.91439 11.3987 7.89876 11.4507 7.89654C11.5028 7.89431 11.5546 7.90557 11.6012 7.92927L19.2589 11.8454C19.3099 11.8713 19.3527 11.9114 19.3823 11.9611C19.412 12.0107 19.4274 12.0679 19.4266 12.1261C19.4259 12.1843 19.4091 12.241 19.3782 12.2899C19.3473 12.3388 19.3035 12.3777 19.2518 12.4023V12.4009Z" fill="#000005"/>
</svg>
